<svg width="64" height="64" viewBox="0 0 64 64" xmlns="http://www.w3.org/2000/svg"><g fill="none" fill-rule="evenodd"><circle fill="#00B0FF" cx="32" cy="32" r="32"></circle><g transform="translate(11 5)" fill="#FFF" fill-rule="nonzero"><path d="M19.3433333,0.6825 C20.2533333,-0.2275 21.7233333,-0.2275 22.6333333,0.6825 L22.6333333,0.6825 L26.6233333,4.6725 C27.51,5.53583333 28,6.72583333 28,7.9625 L28,7.9625 L28,20.0258333 L37.3333333,20.0258333 C39.9,20.0258333 42,22.1258333 42,24.6925 L42,24.6925 L42,38.6925 C42,41.2591667 39.9,43.3591667 37.3333333,43.3591667 L37.3333333,43.3591667 L31.3831089,43.3599895 C32.4415468,41.90021 33.3602725,40.3659412 33.9638856,38.6927036 L37.3333333,38.6925 L37.3333333,34.0258333 L34.7149653,34.0255443 C34.6786743,32.4067738 34.3637313,30.8312707 33.8041582,29.3587296 L37.3333333,29.3591667 L37.3333333,24.6925 L32.6666667,24.6925 L32.6669991,27.0364689 C31.4710812,25.0749976 29.7921047,23.4037078 27.7364182,22.2091974 C23.3777448,19.676476 17.995428,19.676476 13.6367544,22.2091974 C11.9181054,23.2078634 10.4627667,24.5397855 9.33288553,26.0959206 L9.33333333,24.6925 L4.66666667,24.6925 L4.66666667,29.3591667 L7.56901446,29.3587296 C7.00944133,30.8312707 6.69449835,32.4067738 6.65820733,34.0255443 L4.66666667,34.0258333 L4.66666667,38.6925 L7.40951796,38.6927036 C8.01331631,40.3659412 8.93232475,41.90021 9.99109102,43.3599895 L4.66666667,43.3591667 C2.1,43.3591667 0,41.2591667 0,38.6925 L0,38.6925 L0,15.3591667 C0,12.7925 2.1,10.6925 4.66666667,10.6925 L4.66666667,10.6925 L14,10.6925 L14,7.9625 C14,6.72583333 14.49,5.53583333 15.3766667,4.64916667 L15.3766667,4.64916667 Z M9.33333333,15.3591667 L4.66666667,15.3591667 L4.66666667,20.0258333 L9.33333333,20.0258333 L9.33333333,15.3591667 Z M23.3333333,15.3591667 L18.6666667,15.3591667 L18.6666667,20.0258333 L23.3333333,20.0258333 L23.3333333,15.3591667 Z M23.3333333,6.02583333 L18.6666667,6.02583333 L18.6666667,10.6925 L23.3333333,10.6925 L23.3333333,6.02583333 Z"></path><path d="M15.5778998,25.5498021 C18.7364285,23.7144563 22.636744,23.7144563 25.7952726,25.5498021 C28.9538013,27.3851478 30.8850813,30.773749 30.8545065,34.4266743 C30.8545065,38.1591975 28.5202549,40.9144264 26.2622208,43.5784792 C24.2178808,45.9903731 22.2867986,48.2690642 22.2867986,51.0527857 C22.2804931,51.4650968 22.1061674,51.8569701 21.8041559,52.1377357 C21.5021446,52.4185013 21.0986181,52.5638301 20.6869424,52.5400965 C20.2737708,52.56929 19.8669898,52.4258599 19.563504,52.1439745 C19.2600182,51.862089 19.0869982,51.4669852 19.0856614,51.0527857 C19.0856614,48.2690642 17.1545793,45.9903731 15.1123762,43.5784792 C12.8536298,40.9144264 10.5186659,38.1591975 10.5186659,34.4266743 C10.4880911,30.773749 12.4193711,27.3851478 15.5778998,25.5498021 Z M20.6869424,31.5168733 C18.9837783,31.5184441 17.603483,32.8987394 17.6019122,34.6019034 C17.6019122,36.3057185 18.9831272,37.6869335 20.6869424,37.6869335 C22.3907575,37.6869335 23.7719725,36.3057185 23.7719725,34.6019034 C23.7719725,32.8980883 22.3907575,31.5168733 20.6869424,31.5168733 Z"></path></g></g></svg>